<?xml version="1.0" encoding="utf-8"?>
<!-- Generator: Adobe Illustrator 19.1.0, SVG Export Plug-In . SVG Version: 6.00 Build 0)  -->
<!DOCTYPE svg PUBLIC "-//W3C//DTD SVG 1.1//EN" "http://www.w3.org/Graphics/SVG/1.1/DTD/svg11.dtd">
<svg version="1.1" id="Digipolis" xmlns="http://www.w3.org/2000/svg" xmlns:xlink="http://www.w3.org/1999/xlink" x="0px" y="0px"
	 viewBox="441 -442.3 1024 1024" style="enable-background:new 441 -442.3 1024 1024;" xml:space="preserve">
<style type="text/css">
	.st0{fill:url(#SVGID_1_);}
	.st1{fill:#FFFFFF;}
</style>
<linearGradient id="SVGID_1_" gradientUnits="userSpaceOnUse" x1="742.6476" y1="-1151.3909" x2="1092.35" y2="-545.6884" gradientTransform="matrix(2 0 0 2 -882 1766.8101)">
	<stop  offset="0" style="stop-color:#FF4662"/>
	<stop  offset="1" style="stop-color:#D70044"/>
</linearGradient>
<rect x="441" y="-442.3" class="st0" width="1024" height="1024"/>
<g>
	<path class="st1" d="M1110.2,268.3c-2.9,16.9-6.7,31.8-11.5,45.4c-0.7,2-0.4,3.1,1.2,4.9c14,15.9,28.2,32.2,40.5,46.3
		c0.9,1,1.6,2,2.3,3.1c3.8-3.3,7.5-6.6,11.1-9.7c7-6.1,13.6-11.9,20.2-17.8C1164.2,327.9,1121,279.1,1110.2,268.3z"/>
</g>
<g>
	<path class="st1" d="M774.4,64.1c-1.2,5.4-2.1,11-3.1,16.8c-0.3,1.7-0.6,3.4-0.9,5.2c1-0.3,1.8-0.6,2.6-0.8c2.5-0.8,5-1.6,7.4-2.3
		c5.5-1.8,11.2-3.6,16.9-4.9c21.2-5,43.4-7.5,67.8-7.5c15.1,0,30.7,0.9,48,2.9c28.6,3.2,51.8,4.9,73,5.5c4.5,0.1,9.1,0.2,13.6,0.2
		c19.2,0,38.1-1.1,56.3-3.1c21.6-2.5,39.1-6,55.2-11.1c2.3-0.7,4.6-1.6,6.8-2.4c0.6-0.2,1.2-0.4,1.8-0.7c0-0.6,0-1,0-1.3
		c-5-27.4-13.7-50.8-26.6-71.4c-9.5-15.1-20.1-27.2-32.6-36.7c-2.7-2.1-5.4-3.4-8.4-4c-17.7-3.8-36.2-6.2-56.5-7.4
		c-7.3-0.4-14.5-0.6-21.5-0.6c-28.1,0-53.8,3.3-78.7,10.2c-20.9,5.8-40,14.1-56.7,24.8C821.4-13.4,806,0.6,793.1,17.1
		c-2.8,3.5-5.3,7.8-7.6,12.8C780.8,39.9,777.2,51.2,774.4,64.1z"/>
</g>
<g>
	<path class="st1" d="M1220.5-176l-21.1-18.4l-33,37.8l-92.3,105.7c0.8,0.8,1.5,1.5,2.2,2.2c2.6,2.6,5,5,7.3,7.6
		c3.3,3.7,6.6,7.6,10,12c2.1,2.7,4.1,5.5,6.1,8.4c0.5,0.7,0.9,1.3,1.4,2l71.4-81.7l58.1-66.5L1220.5-176z"/>
</g>
<g>
	<path class="st1" d="M711.3,388.4c0,1.2-0.1,2.5-0.1,3.7c-0.1,2.2,0.3,2.7,0.3,2.8c0.1,0.1,0.4,0.2,0.9,0.2s1.2-0.1,1.9-0.2
		c1.6-0.3,3.2-0.6,4.9-0.9c5.5-1.1,11.2-2.2,16.8-3.5c7.9-1.9,13.6-6.9,19.9-14.3l-8.5-7.4L724,348.4c-5.6,6.3-10.4,12.7-11.4,20.8
		C711.8,375.5,711.5,382.1,711.3,388.4z"/>
</g>
<g>
	<path class="st1" d="M813.5,305.6c-1.3-4.6-2.7-9.4-3.7-14.2c-1.7-8.2-3.3-16.4-4.9-25.1c-0.5-2.5-1-5-1.4-7.6
		c-3.9,4.1-7.5,8.2-10.9,12.2c-1.9,2.2-3.8,4.5-5.8,6.7c-4.3,4.8-8.7,9.8-12.9,14.7c-1.9,2.2-3.9,4.5-5.8,6.7l-7,8
		c-3.9,4.4-7.8,8.9-11.7,13.3c-4.3,4.9-8.6,9.8-12.8,14.7l-4.4,5.1c6.9,7.2,26.4,23.7,31.4,27.1c4.6-5.3,9.2-10.5,13.8-15.8
		c11.7-13.4,23.8-27.2,35.7-40.7c1.1-1.2,1.3-2.3,0.7-4.3L813.5,305.6z"/>
</g>
<g>
	<path class="st1" d="M1103.3,229.1l-12.2,1.1l-8,0.7c0,0.1-0.1,0.3-0.1,0.4c-0.2,1.3-0.5,2.5-0.6,3.7c-2.2,18.5-6.2,36.8-11.7,54.3
		c-8.5,27-18.9,47.2-32.7,63.7c-23.1,27.6-51.6,41.5-84.7,41.5c-10.2,0-20.9-1.3-31.9-4c-23.8-5.7-43-20.5-58.6-45.3
		c-10.8-17.2-18.5-37.2-24.1-63c-4.5-20.6-6.8-42.2-7.2-66c0-1-0.1-2.1-0.2-3.3v-0.1l-12.6-0.8l-7.3-0.5c0,0.2,0,0.4,0,0.6
		c0,1.5,0,2.7,0,3.9c0.7,28.3,4.3,55.4,10.9,80.7c7.2,27.5,17.2,49.9,30.8,68.6c15.3,21,34.7,35.5,57.6,43c13,4.3,27.1,6.4,41.7,6.4
		c6.5,0,13.3-0.4,20.2-1.2c22.1-2.6,41-9.5,57.7-20.9c18.3-12.5,32.9-29.3,44.5-51.5c16.4-31.1,25.4-66.2,28.3-110.3
		C1103.4,230.4,1103.4,229.8,1103.3,229.1z"/>
</g>
<g>
	<path class="st1" d="M844.2,245c0.8,8.6,1.6,17.4,3.8,26.6l0.7-0.8l45.1-51.7l-50.4-5.1l-0.7-0.1c-0.4,11,0.5,21.1,1.4,30.1
		L844.2,245z"/>
</g>
<g>
	<path class="st1" d="M1024.2,231.8l5.7,6.6l32.9,37.8c3.6-9.8,8.6-35,8.7-44.5c-0.2,0-0.3,0-0.5,0v-2l0,0v2
		C1057,231.6,1042,231.7,1024.2,231.8z"/>
</g>
<g>
	<path class="st1" d="M609.9-270.3c10.3,22.4,21.3,46.4,35.8,77.7c0.4,0.9,0.9,1.7,1.4,2.7l13.4-11.7l27.4-23.9
		c-0.4-0.3-0.7-0.6-1.1-0.8c-22.7-14.4-46.6-29.5-75.4-47.7c-0.9-0.6-1.8-1.2-2.7-1.5c-0.2-0.1-0.4-0.1-0.5-0.1c-0.1,0-0.1,0-0.1,0
		c0,0.1,0,0.2,0,0.4C608.4-273.6,609.2-271.9,609.9-270.3z"/>
</g>
<g>
	<path class="st1" d="M766.9,49.6c2.3-7.7,5.2-15.3,8.1-22.6c1.2-3.1,2.5-6.3,3.7-9.5c9.6-25.6,24.6-48.9,44.5-69.3
		c27.1-27.6,61.2-47.5,101.5-59.1c29.1-8.4,59.8-12.5,93.6-12.5c15.6,0,31.6,0.9,49,2.6c5.4,0.5,10.8,1.2,16,1.9
		c2.9,0.4,5.7,0.7,8.6,1.1c0.3,0,0.6,0.1,0.8,0.1c1.4,0,1.9-0.5,2.3-1.3c0.6-1.3,0.5-3-0.9-3.9c-2.2-1.4-4.4-2.3-6.4-2.7
		c-17.9-3.4-36.4-5.5-56.6-6.2c-5.4-0.2-10.8-0.3-16-0.3c-21.9,0-43.2,1.8-63.3,5.3c-30.6,5.4-56.6,14.1-79.3,26.7
		c-27.7,15.3-50.5,34.9-67.7,58.2c-17.1,23.2-29.3,50.7-36.2,81.7C767.8,42.9,767.3,46.2,766.9,49.6z"/>
</g>
<g>
	<polygon class="st1" points="706.6,-194.5 675.3,-167.1 763.2,-66.6 788.2,-37.9 799.3,-51.9 814.5,-71.1 	"/>
</g>
<g>
	<path class="st1" d="M740.1-174.9l12.8,14.7c12.6-16.3,24.9-32.4,37.2-48.4c0-0.1,0.1-0.1,0.1-0.2c-16.1,9.2-32,18.3-48.8,28
		l-4.4,2.5L740.1-174.9z"/>
</g>
<g>
	<path class="st1" d="M672.3-196.8c-6.9,6.1-13.8,12.1-20.7,18.2c-1,0.9-1.9,1.7-2.6,2.6c-1.6,2.1-1.5,5.1,0.2,7
		c1.1,1.3,2.6,2,4.1,2c1,0,2.1-0.3,3.1-0.9c0.8-0.5,1.6-1.2,2.4-1.9c0.2-0.2,0.4-0.3,0.6-0.5c10.1-8.8,20.2-17.6,30.3-26.4
		c2.2-1.9,4.4-3.8,6.6-5.8c3.4-2.9,6.7-5.9,10.1-8.8c1.9-1.7,3.2-3.2,3.2-5.4c0-3-2.2-5.3-5.2-5.6c-0.2,0-0.4,0-0.5,0
		c-2.1,0-3.8,1.3-5.7,3C689.6-211.9,681-204.4,672.3-196.8z"/>
</g>
<g>
	<path class="st1" d="M714.2-102.9c0.1-0.2,0.2-0.4,0.3-0.5l-8.2-9.4l-30.7-35.1c-0.4,0.2-0.8,0.3-1.1,0.5c-1.5,0.7-2.9,1.2-4.2,1.8
		c-28.5,12.6-51,20.7-73,26.4c-12.6,3.2-29.1,7-46.2,7c-5.2,0-10.4-0.3-15.3-1c-0.4-0.1-0.8-0.1-1.1-0.1c-0.6,0-1.3,0.1-1.7,0.5
		c-0.4,0.4-0.4,1.4-0.2,2.7c1.2,6.7,2.4,13.2,4.3,19.4c4.7,15.5,12.4,30.6,23.4,46.2c18.7,26.6,39.2,46.8,62.6,61.9
		c11.6,7.5,22.6,12.5,33.5,15.4c1.1,0.3,2,0.4,2.6,0.4c1,0,1.9,0,2.2-4c0.1-1.4,0.2-2.9,0.3-4.3c0.2-3.2,0.4-6.4,0.8-9.7
		c1.7-12.3,5.4-25.4,11.6-41.1c11.2-28.4,26.2-54.2,38.1-73.6C712.9-100.7,713.6-101.8,714.2-102.9z"/>
</g>
<g>
	<path class="st1" d="M1149.6-165.1l3.5,4.5c5-4.8,12.7-14,15.5-18.2c-0.9-0.5-1.8-1-2.6-1.5c-2.2-1.2-4.4-2.4-6.6-3.6
		c-4.2-2.3-8.6-4.7-12.8-7.2c-4.8-2.8-9.7-5.7-14.5-8.4c-4.7-2.8-9.6-5.7-14.5-8.4c-0.4-0.2-0.7-0.5-1.1-0.7c-0.3-0.2-0.7-0.5-1-0.6
		C1126.9-194.6,1137.9-180.2,1149.6-165.1z"/>
</g>
<g>
	<path class="st1" d="M1207.3,172c-7.7-4.9-15.4-9.9-23.1-14.8c-17.2-11-35-22.5-52.5-33.8c-1.2-0.8-2.2-1.1-3.3-1.1
		c-0.8,0-1.6,0.2-2.6,0.6c-14.4,5.4-30.4,9.4-50.3,12.7c-16.6,2.7-34.3,4.5-55.7,5.6c-8,0.4-16.3,0.6-24.6,0.6
		c-12.8,0-26.1-0.5-39.7-1.4c-13.8-0.9-27.7-2.4-41.2-3.8c-4.1-0.4-8.2-0.8-12.3-1.2c-12.4-1.2-24.6-1.9-36.4-1.9
		c-19.5,0-38.6,1.7-56.7,5.2c-23.2,4.4-39.8,10.7-53.8,20.4c-20.4,14.2-36.5,29.2-49.2,45.9c-1.1,1.4-1.6,3.1-1.5,3.6v0.1
		c0,0,0.1,0,0.3,0c0.5,0,1.1-0.1,1.7-0.3c0.4-0.1,0.9-0.2,1.3-0.2c6.6-0.8,13.4-1.7,19.9-2.6c7.1-0.9,14.4-1.9,21.6-2.8
		c13.7-1.7,27.9-2.6,42.3-2.6c10.8,0,22.1,0.5,33.4,1.5c23.9,2.1,47.4,4.4,71.5,6.8c24.3,2.4,48.8,5,72.9,7.6
		c25.2,2.7,48.6,4.6,81.3,5.1c1.4,0,2.8,0,4.2,0c17.7,0,39.2-1.7,57.7-4.6c23.7-3.7,43.8-9.4,61.3-17.4
		c12.3-5.6,23.5-12.8,33.4-21.2c2.7-2.3,3-3.1,3-3.3C1210.4,174.4,1210,173.8,1207.3,172z"/>
</g>
<g>
	<path class="st1" d="M1371.1-113.4c-0.6,0-1.2,0-2,0.1c-3.9,0.4-7.3,0.7-10.4,0.8c-1.2,0-2.5,0.1-3.8,0.1c-18.5,0-36-4.1-50.7-8.2
		c-21-5.8-43.2-14-69.9-25.8c-1.7-0.8-3.1-1.4-3.6-1.4c-0.4,0-1.5,1.2-2.7,2.6c-10.4,11.9-21.7,24.7-34.3,39.3
		c-0.6,0.7-1.2,1.5-1.9,2.4c-0.1,0.1-0.1,0.1-0.2,0.2c0.4,0.6,0.7,1.2,1.1,1.8c1.2,2,2.4,4,3.6,6c16.5,27.3,27.7,49.2,36.2,71.1
		c6.7,17.3,10.3,31,11.6,44.3c0.2,1.8,0.2,3.7,0.3,5.5c0.1,1.6,0.1,3.3,0.3,4.9c0.2,2.6,1.2,2.8,2.4,2.8c0.4,0,0.8,0,1.2-0.1
		c1-0.2,2.1-0.5,3.2-0.8c10.7-3.2,21.3-8.3,32.5-15.5c19.9-12.9,37.9-30,55.1-52.2c13.4-17.4,22.7-33.9,28.3-50.5
		c2.7-8.1,4.5-16.7,5.8-23.2c0.5-2.7,0.1-3.5,0-3.6C1372.9-113.1,1372.5-113.4,1371.1-113.4z"/>
</g>
<g>
	<path class="st1" d="M1296.5-271.1c0.1-0.2,0.2-0.5,0.3-0.7c0.4-0.8,0.7-1.5,0.8-2.1s0.1-1.1,0-1.4c-0.4,0-0.8,0.1-1.2,0.2
		c-0.7,0.2-1.5,0.8-2.3,1.3c-0.3,0.2-0.5,0.4-0.8,0.5c-24.3,15.4-48.6,30.7-72.8,46.1c-0.7,0.5-1.4,1-2.3,1.6l6.5,5.7
		c11.7,10.3,22.8,20,34.3,29.9c0.3-0.6,0.6-1.1,0.8-1.6C1272.1-218,1284.3-244.5,1296.5-271.1z"/>
</g>
<g>
	<path class="st1" d="M1200.5-210.7L1200.5-210.7c12.9,11.3,25.9,22.7,38.5,33.7l0.8,0.7c0.8,0.7,1.6,1.4,2.4,2.1
		c2.1,1.9,4.3,3.8,6.6,5.6c1.3,1,2.7,1.6,4,1.6c1.5,0,2.8-0.7,4-1.9c2.2-2.4,2.1-5.3-0.3-8c-0.6-0.6-1.2-1.2-1.9-1.8
		c-0.2-0.2-0.4-0.3-0.6-0.5c-6.7-5.9-13.4-11.7-20.1-17.6c-8.6-7.5-17.2-15-25.8-22.6l-0.4-0.4c-1.7-1.5-3.1-2.7-4.9-2.7
		c-0.1,0-0.2,0-0.3,0h-0.1h-0.1c-0.1,0-0.2,0-0.3,0c-2.1,0-3.7,0.9-4.7,2.8c-1.1,2-1,3.9,0.2,5.7
		C1198.2-212.7,1199.4-211.7,1200.5-210.7z"/>
</g>
<g>
	<path class="st1" d="M769.3,136c0,0.7,0.2,1.5,0.4,2.4c1.4-0.5,2.8-0.9,4.1-1.4c4.3-1.5,8.4-2.9,12.6-4.1
		c24.3-7,50.1-10.3,78.9-10.3c11,0,22.3,0.5,34.5,1.5c8.4,0.7,16.9,1.6,25.1,2.4c9,0.9,18.2,1.9,27.3,2.6
		c15.3,1.2,30.4,1.8,44.9,1.8c24.7,0,49-1.8,72.1-5.3c19.6-3,36.3-7,51.3-12.3c1.7-0.6,3.2-1.1,3.4-1.5c0.3-0.4,0.2-2.1,0.2-3.5
		c-0.3-9.2-0.7-17.7-1.2-25.7c-0.2-2.5-0.6-5.1-1-7.8c-0.1-0.6-0.2-1.1-0.3-1.7c-1.3,0.4-2.5,0.8-3.8,1.2c-3.9,1.2-7.6,2.4-11.3,3.4
		c-26.9,7.4-57.1,11.3-95,12.3c-4.1,0.1-8.3,0.2-12.6,0.2c-32.2,0-64.2-3.2-94.3-6.4c-13.1-1.4-26.2-2.1-38.7-2.1
		c-18.4,0-36.5,1.6-53.9,4.6c-15.1,2.7-28.2,6.4-40.2,11.4c-2.2,0.9-2.8,1.8-2.8,3.9c0.1,6.3,0.1,12.8,0.2,19
		C769.2,125.5,769.2,130.8,769.3,136z"/>
</g>
<g>
	<path class="st1" d="M972.9-109.7c-26,3.3-49,9.1-70.3,17.9c-21.1,8.7-40,19.9-56.2,33.2c-15.5,12.8-29,28-40.1,45.1
		c15.2-13.9,32.8-25.4,52.4-34.3c30.5-13.9,64.4-21.3,103.5-22.8c4.6-0.2,9.2-0.3,13.8-0.3c25.4,0,51.2,2.7,76.5,7.9
		c0.8,0.2,1.6,0.2,2.6,0.3c0.1,0,0.2,0,0.3,0l24-46.1c-1.9-0.2-3.7-0.4-5.5-0.6c-5.5-0.6-10.8-1.1-15.9-1.6c-13-1.2-26-1.8-38.6-1.8
		v-2l0,0v2C1003.7-112.6,988-111.6,972.9-109.7z"/>
</g>
<g>
	<path class="st1" d="M1194.5,385.4c-0.4-4.1-0.8-8.3-0.8-12.6c-0.1-9.4-4.8-16.3-11.6-24.5l-21.7,19l-10,8.8
		c5.6,7.8,14,13.4,22.8,15.1c3.7,0.7,7.5,1.5,11.1,2.2c2.4,0.5,4.8,1,7.2,1.4c0.8,0.2,1.4,0.2,1.9,0.2c0.4,0,1-0.1,1.3-0.3
		c0.2-0.2,0.6-0.9,0.4-3.2C1194.9,389.5,1194.7,387.4,1194.5,385.4z"/>
</g>
</svg>
