<?xml version="1.0" encoding="utf-8"?>
<!-- Generator: Adobe Illustrator 19.2.0, SVG Export Plug-In . SVG Version: 6.00 Build 0)  -->
<!DOCTYPE svg PUBLIC "-//W3C//DTD SVG 1.1//EN" "http://www.w3.org/Graphics/SVG/1.1/DTD/svg11.dtd">
<svg version="1.1" id="Brandweer" xmlns="http://www.w3.org/2000/svg" xmlns:xlink="http://www.w3.org/1999/xlink" x="0px" y="0px"
	 viewBox="0 0 1024 1024" enable-background="new 0 0 1024 1024" xml:space="preserve">
<rect fill="#AD0235" width="1024" height="1024"/>
<path fill="#FFFFFF" d="M782.5,604.4c-0.7-0.6-1.5-1-1.9-1.2c-0.1-0.1-0.2-0.1-0.3-0.2l0,0l-0.5-0.3l-82.6-53
	c-5.5,2.3-18.8,7.1-40.2,11.6c-28.4,6-60.5,9.2-95.3,9.4l-1.6,0c-1,0-2.1,0-3.2,0c-27.5,0-56.6-1.8-86.6-5.5
	c-0.9-0.1-1.8-0.2-2.6-0.3c-0.8-0.1-1.5-0.2-2.3-0.2c-16.1-1.8-31.7-2.7-46.5-2.7c-36.3,0-62.9,5.2-78.8,9.6
	c-9.8,2.7-18.7,6-25.1,9.2c-0.1,0.1-0.2,0.1-0.3,0.1l0,0l-0.2,0.1c-32.5,18.6-53.5,41.2-65.4,56.7c-1.4,1.8-1.7,3-1.8,3.4
	c0.1,0,0.2,0,0.3,0.1h0c41.1-5.9,63.9-9,91.4-9c16.2,0,33.9,1,61,3.5c15.4,1.4,33.8,3.3,58.3,5.9l18.9,2c19.2,2,40.9,4.3,66,6.9
	c10.1,1,20.3,1.9,31.2,2.5c14.1,0.9,27.2,1.3,38.9,1.3c7.5,0,15.2-0.2,24.3-0.6c94.6-4.5,129.4-33.9,144.2-46.4
	c1.2-1.1,1.6-1.7,1.7-1.9C783.5,605.4,783.1,604.9,782.5,604.4z"/>
<path fill="#FFFFFF" d="M418.9,550.2c17,0,34.8,1.1,52.8,3.3c0.2,0,0.3,0,0.5,0.1c28.4,3.4,56.2,5.2,82.6,5.3c0.3,0,0.7,0,1.1,0
	c0.3,0,0.7,0,1,0c48.6,0,83.7-5.9,104.7-10.8c15.1-3.5,25.1-7.1,30.2-9.1c0,0,0-0.1,0-0.1c0-0.5,0-0.9,0-1.4
	c0-13.5-0.8-26.8-2.5-39.6c-15.1,5.6-52.8,16.7-117.6,18c-4.7,0.1-8.4,0.1-11.9,0.1c-28.1,0-58.3-1.9-89.6-5.7
	c-9-1.1-18-1.9-26.7-2.4c-8.4-0.5-16.7-0.8-24.7-0.8c-36.4,0-62.9,5.3-78.7,9.7c-9.1,2.5-17.5,5.5-23.7,8.5
	c-0.5,6.6-0.7,13.2-0.7,19.4v0c0,7.7,0.3,15.4,1,22.5C331,561.3,365.1,550.2,418.9,550.2z"/>
<path fill="#FFFFFF" d="M471.7,498.5c10.2,1.2,20.8,2.3,33.4,3.3l2.8,0.2c2.8,0.2,5.7,0.5,8.5,0.6c15,1,29.7,1.5,43.4,1.5
	c6.1,0,12.3-0.1,18.8-0.3c30.1-1,57.4-4.2,80.9-9.6c14.1-3.2,23.2-6.4,28-8.3c-4.9-28.1-14-53.3-27-74.8c-1.9-3.2-3.7-5.9-5.4-8.3
	c-9.4-13.6-18.7-22.8-24.9-28.2c-0.1,0-0.1-0.1-0.2-0.1l-0.1-0.1c-5.3-4.6-8.9-6.9-10-7.5c-5.1-1.3-40-9.4-85.6-9.4
	c-0.1,0-0.1,0-0.2,0c-50.9,0-95.2,10-131.7,29.7c-14,7.5-27,16.8-38.7,27.4c-10.4,9.5-19.3,19.5-27.2,30.5
	c-9.4,20.1-15.8,42.5-18.8,66.7c14.5-5.8,48.2-16.5,101-16.5c5.1,0,10.7,0.1,17.7,0.4C448.7,496.2,460.1,497.1,471.7,498.5z"/>
<path fill="#FFFFFF" d="M722.8,250.9l16.8-19.2c-25.5-13.7-45.8-25.9-55.8-32c-0.2-0.1-0.4-0.3-0.6-0.4c0,0,0,0,0,0
	C690.6,208.4,705.4,227,722.8,250.9z"/>
<path fill="#FFFFFF" d="M282.4,231.6l16.8,19.2c16.1-22.1,30.4-40.2,39.6-51.5c-0.2,0.1-0.3,0.2-0.5,0.3
	C325.8,207.2,306.1,218.8,282.4,231.6z"/>
<path fill="#FFFFFF" d="M216.7,266.4c-55.3,24.8-99.8,37.4-132.1,37.4c-5.7,0-11.2-0.4-16.1-1.2l-0.2,0l-0.1,0c0,0-0.1,0-0.1,0
	c1.3,13.4,8.5,48.4,46.9,92.3l0.1,0.2c38.3,43.8,72,55.6,84.8,58.6c0,0,0.1,0,0.1,0c0.1-0.1,0.2-0.4,0.2-0.5
	c-0.7-33.4,18-81.1,55.7-141.9L216.7,266.4z"/>
<path fill="#FFFFFF" d="M256.3,813.6l0,0.2l0,0.2c0,0,0,0.3,0,0.8c-0.4,8.5-0.9,15.9-1.5,22.1c0,1,0.2,1.7,0.5,2
	c0.3,0.3,0.9,0.2,1.3,0.1c8.3-2,17.2-3.7,21-4.4c0.4-0.1,0.7-0.1,1-0.2l0.1-0.1l1-0.1c7-0.5,16.3-8,22.4-15.2l-33.6-29.4
	C262.3,796.3,255.9,806.7,256.3,813.6z"/>
<path fill="#FFFFFF" d="M280.1,312.8l1.4-2.4l3.1,7.1l0.4,0.8l2.1,2.4l61.9,70.8c8-11.6,17.1-21.2,26.2-30.3l-5.5-6.3
	c-3.5-4-7.2-8.3-10.1-11.6c-1.4-1.7-2.7-3.1-3.5-4l-1-1.2c-0.1-0.1-0.2-0.3-0.3-0.4l0,0L307,283l-3.3-3.8l-3.3-3.8l-50.4-57.7
	l-8.7,7.6l-21.2,18.6L280.1,312.8z"/>
<path fill="#FFFFFF" d="M765.6,813.9l0-0.1l0-0.2c0.5-6.8-5.9-17.2-12.1-24L719.9,819c6.1,7.3,15.4,14.7,22.4,15.2l1,0.1l0.1,0.1
	c0.3,0,0.6,0.1,1,0.2c3.8,0.7,12.7,2.4,21.1,4.4c0.3,0.1,0.9,0.1,1.2-0.2c0.4-0.3,0.5-1.1,0.5-2c-0.9-9-1.4-18.6-1.5-21.8
	C765.7,814.5,765.6,814.1,765.6,813.9z"/>
<path fill="#FFFFFF" d="M718.2,279.4L715,283l-72.9,83.5c7.2,6.6,16.6,16.6,26,30.7l66.8-76.6l2.5-2.8l0.9-1l3.3-3.8l60.5-69.2
	l-21.3-18.6l-8.7-7.6l-48.2,55.1h0L718.2,279.4z"/>
<path fill="#FFFFFF" d="M953.4,300.7l-0.2,0c-32.9,5.2-82.8-7.1-148.5-36.7l-41.2,47.1c38,61,56.9,108.8,56.2,142.1
	c0,0.5,0.4,1.6,1.1,2.1c0.5,0.4,1.1,0.5,1.8,0.3c12.9-3.1,47.1-15,85.8-59.3l0.1-0.1c39.2-44.8,46.2-80.6,47.5-93.9
	c0.1-0.7-0.1-1.1-0.4-1.4C955.1,300.6,954.3,300.5,953.4,300.7z"/>
<path fill="#FFFFFF" d="M534.3,345.6c41.1,0,73.8,6.4,84.9,8.9l25.3-48.7c-22-2.8-43.4-4.2-63.7-4.2c-81.7,0-146.9,22.6-193.8,67
	l-1.1,1c-1.2,1.1-2.4,2.3-3.5,3.4c-9.8,9.9-18.3,20.4-26,32.2c-0.1,0.1-0.1,0.2-0.2,0.3c11.6-10.5,24.8-19.9,39.2-27.9
	C434.1,356.4,480.8,345.6,534.3,345.6z"/>
<path fill="#FFFFFF" d="M733.4,770.8l-3.2-3.6l-3.1-3.6L672.2,705l-34.9-37.2c-8.4,0.4-15.9,0.6-23.3,0.6h-0.6
	c-7.2,0-14.8-0.1-22.6-0.4l28,32.2l39.3,45l33.9,38.7l3.3,3.7l3.2,3.7l13.8,15.8l29.9-26.2L733.4,770.8z"/>
<path fill="#FFFFFF" d="M290.2,765.9l-3.2,3.6L276.9,781l33,28.8l21.6-24.7l72.5-82.1l44-50.5c-21.7-2.3-39.4-4.1-54.4-5.4
	L290.2,765.9z"/>
<path fill="#FFFFFF" d="M824.9,210.9l0-0.2l0-0.1c0-0.1,0-0.5,0.1-1c0.2-3.2,0.6-12.8,1.5-21.9c0-1-0.2-1.7-0.5-2
	c-0.3-0.3-0.8-0.2-1.3-0.1c-8.5,2-17.8,3.8-21.2,4.4c-0.3,0.1-0.6,0.1-0.8,0.1l-0.1,0.1l-1,0.1c-7,0.5-16.3,8-22.4,15.2l33.6,29.4
	C818.9,228.1,825.3,217.8,824.9,210.9z"/>
<path fill="#FFFFFF" d="M197.3,210l0,0.2l0,0.3c-0.5,6.8,5.9,17.2,12.1,23.9L243,205c-6.1-7.3-15.4-14.7-22.4-15.2l-1-0.1l-0.1-0.1
	c-0.2,0-0.5-0.1-0.8-0.1c-3.8-0.7-12.7-2.4-21.3-4.4c-0.3-0.1-0.9-0.1-1.2,0.1c-0.4,0.3-0.6,1.1-0.5,2c0.8,8.7,1.3,17.9,1.5,21.4
	C197.3,209.3,197.3,209.8,197.3,210z"/>
</svg>
