<?xml version="1.0" encoding="utf-8"?>
<!-- Generator: Adobe Illustrator 19.1.0, SVG Export Plug-In . SVG Version: 6.00 Build 0)  -->
<!DOCTYPE svg PUBLIC "-//W3C//DTD SVG 1.1//EN" "http://www.w3.org/Graphics/SVG/1.1/DTD/svg11.dtd">
<svg version="1.1" id="Digipolis" xmlns="http://www.w3.org/2000/svg" xmlns:xlink="http://www.w3.org/1999/xlink" x="0px" y="0px"
	 viewBox="441 -442.3 1024 1024" style="enable-background:new 441 -442.3 1024 1024;" xml:space="preserve">
<style type="text/css">
	.st0{fill:url(#SVGID_1_);}
	.st1{fill:#FFFFFF;}
</style>
<linearGradient id="SVGID_1_" gradientUnits="userSpaceOnUse" x1="742.6476" y1="-1151.3909" x2="1092.35" y2="-545.6884" gradientTransform="matrix(2 0 0 2 -882 1766.8101)">
	<stop  offset="0" style="stop-color:#FF4662"/>
	<stop  offset="1" style="stop-color:#D70044"/>
</linearGradient>
<rect x="441" y="-442.3" class="st0" width="1024" height="1024"/>
<path class="st1" d="M1111.5,272.5c-2.8,15.3-6.4,29.1-10.9,41.9c-0.4,1.1-0.4,1.5,0.8,2.9c12.4,14.1,25.1,28.7,36.3,41.5l4.2,4.8
	c0.4,0.5,0.8,1,1.2,1.4c1.1-1,2.2-1.9,3.3-2.9c2.1-1.9,4.1-3.6,6.2-5.4c7.2-6.3,13.2-11.5,18.8-16.5
	C1160.6,327,1125.1,286.8,1111.5,272.5z"/>
<path class="st1" d="M776.4,64.6c-1,4.5-1.8,9-2.6,13.9c-0.2,0.9-0.3,1.9-0.5,2.9c-0.1,0.7-0.2,1.3-0.3,2c2.3-0.7,4.6-1.5,6.9-2.1
	c5.1-1.7,11.1-3.6,17-4.9c21.5-5.1,43.9-7.6,68.2-7.6c15.5,0,31.3,1,48.2,2.9c28,3.1,51.1,4.9,72.8,5.5c4.2,0.1,9,0.2,13.5,0.2
	c18.6,0,37.4-1,56.1-3.1c21.5-2.5,39-6,54.8-11c1.7-0.5,3.4-1.2,5.1-1.8c0.5-0.2,1.1-0.4,1.6-0.6l0,0l0,0c0.1,0,0.3-0.1,0.4-0.1
	c-5-27-13.6-50-26.3-70.3c-9.5-15.2-20-27-32.1-36.2c-2.5-1.9-4.9-3.1-7.6-3.6c-17.5-3.8-35.9-6.2-56.2-7.4
	c-7.2-0.4-14.4-0.6-21.4-0.6c-28,0-53.6,3.3-78.2,10.1c-20.9,5.8-39.8,14.1-56.2,24.6c-17.3,11-32.5,24.9-45.2,41.1
	c-2.6,3.3-5,7.3-7.4,12.4C782.8,40.4,779.2,51.5,776.4,64.6z"/>
<path class="st1" d="M1219.2-174.5l-19.6-17.1l-31.7,36.3L1076.8-51l0.2,0.2l0.7,0.7c2.6,2.6,5,5,7.4,7.7c3.7,4.2,6.9,8,10.1,12.1
	c1.8,2.4,3.8,5,6.1,8.4l69.7-79.8l56.8-65L1219.2-174.5z"/>
<path class="st1" d="M724.2,351.2c-5.2,6.1-8.8,11.6-9.6,18.2c-0.8,6.3-1.1,12.8-1.3,19c0,0.6,0,1.3-0.1,1.9c0,0.6,0,1.2,0,1.8v0
	l0,0c0,0.3,0,0.6,0,0.8c0.3,0,0.5-0.1,0.8-0.1c1.6-0.3,3.2-0.6,4.9-0.9l2.5-0.5c4.7-0.9,9.5-1.9,14.2-3c7-1.7,12.2-6,17.5-12.2
	l-7-6.1L724.2,351.2z"/>
<path class="st1" d="M811.6,306.3L811.6,306.3l-0.1-0.2l-0.4-1.4c-1.2-4.2-2.4-8.6-3.4-13c-1.7-8.2-3.3-16.4-4.9-25.1
	c-0.2-1.2-0.5-2.4-0.7-3.7c-2.5,2.7-5.2,5.7-8.1,9.2c-0.6,0.7-1.2,1.4-1.8,2.1c-1.3,1.5-2.7,3.1-4,4.6c-4.6,5.1-8.9,10.1-12.9,14.7
	c-1,1.1-1.9,2.2-2.9,3.4c-1,1.1-1.9,2.2-2.9,3.3l-7,8c-2,2.2-3.9,4.4-5.8,6.6c-2,2.2-3.9,4.5-5.9,6.7c-4.2,4.8-8.6,9.8-12.8,14.7
	l-3.2,3.7c7,6.9,22.3,20,28.4,24.5c1.9-2.2,3.8-4.4,5.7-6.5c2.3-2.6,4.6-5.2,6.9-7.9c12.2-14,24.3-27.7,35.7-40.7
	c0.5-0.5,0.8-0.8,0.3-2.3L811.6,306.3z"/>
<path class="st1" d="M1084.8,232.8c0,0.1,0,0.2-0.1,0.3c-0.1,0.7-0.3,1.4-0.3,2.1l0,0l0,0c-2.2,18.3-6.1,36.7-11.8,54.7
	c-8.6,27.2-19.1,47.6-33.1,64.4c-23.4,28-52.5,42.2-86.2,42.2c-10.5,0-21.4-1.4-32.4-4.1c-24.4-5.8-43.9-20.9-59.8-46.2
	c-11-17.5-18.7-37.7-24.4-63.6c-4.5-20.5-6.8-42.2-7.2-66.4c0-0.5,0-1-0.1-1.5l-10.9-0.7l-5.2-0.4v2.4c0.7,28.3,4.3,55.3,10.8,80.2
	c7.2,27.4,17.1,49.6,30.5,67.9c15.1,20.7,34.1,34.9,56.6,42.3c12.6,4.2,26.5,6.3,41.1,6.3c6.5,0,13.2-0.4,20-1.2
	c21.7-2.6,40.3-9.3,56.8-20.6c18.1-12.4,32.5-29,43.9-50.8c16.2-30.7,25.1-65.3,28-108.9l-9.8,0.9L1084.8,232.8z"/>
<path class="st1" d="M846.2,244.8l0,0.4c0.7,7.2,1.4,14.6,2.9,22.1l40.6-46.6l-45.1-4.6c-0.2,9.9,0.6,19.1,1.5,27.7L846.2,244.8z"/>
<path class="st1" d="M1028.5,233.8l2.9,3.3l30.6,35.1c3.2-10.4,6.8-29.3,7.4-38.6c-3.4,0-7.1,0-11,0
	C1049.2,233.7,1039.6,233.7,1028.5,233.8z"/>
<path class="st1" d="M617.8-257.8c8.4,18.4,18,39.2,29.7,64.4c0.1,0.1,0.1,0.2,0.2,0.4l11.5-10l25.4-22.2
	c-21.1-13.4-43.6-27.6-69.5-44l-3.6-2.3l0.2,0.4L617.8-257.8z"/>
<path class="st1" d="M821.8-53.2c27.4-27.9,61.8-48,102.4-59.6c29.3-8.5,60.1-12.6,94.2-12.6c15.1,0,31.2,0.9,49.2,2.6
	c5.6,0.5,11.2,1.3,16.1,1.9c1.4,0.2,2.9,0.4,4.3,0.5c1.4,0.2,2.8,0.3,4.2,0.5c0.3,0,0.5,0.1,0.7,0.1l0,0c0.2,0,0.3,0,0.3,0
	c0,0,0-0.1,0.1-0.1c0.1-0.2,0.4-1-0.2-1.4c-1.9-1.2-3.9-2.1-5.7-2.4c-18.2-3.5-36.7-5.5-56.3-6.2c-5.4-0.2-10.7-0.3-15.9-0.3
	c-21.7,0-42.9,1.8-63,5.3c-30.6,5.4-56.3,14.1-78.7,26.5c-27.5,15.2-50,34.6-67.1,57.6C794.7-24.7,785.3-6.8,778.3,13
	C788-11.3,802.6-33.5,821.8-53.2z"/>
<polygon class="st1" points="678.1,-166.9 764.7,-67.9 788.1,-41 797.7,-53.1 811.9,-71 706.4,-191.6 "/>
<path class="st1" d="M752.8-163.3c7.8-10.1,15.5-20.2,23-29.9c2.3-3,4.6-5.9,6.8-8.9c-14.2,8.1-26.9,15.4-40.2,23.1l-2.2,1.3
	l1.4,1.6L752.8-163.3z"/>
<path class="st1" d="M652.9-177.1L652.9-177.1c-1,0.9-1.8,1.6-2.3,2.3c-1,1.3-1,3.2,0.1,4.4l0,0l0,0c0.7,0.8,1.6,1.3,2.6,1.3
	c0.7,0,1.4-0.2,2.1-0.6c0.6-0.4,1.3-1,2.1-1.7c0.2-0.2,0.3-0.3,0.5-0.4c0,0,0.1,0,0.1-0.1l0,0l0,0l14.1-12.3l16.2-14.1
	c2.2-1.9,4.4-3.8,6.6-5.8l0,0l0,0c1.7-1.4,3.4-2.9,5-4.4c1.7-1.5,3.4-3,5.1-4.4c1.9-1.7,2.5-2.7,2.5-3.9c0-1.9-1.4-3.4-3.3-3.6h-0.4
	c-1.3,0-2.6,0.9-4.4,2.5c-8.8,7.6-17.7,15.3-25.9,22.5c-3.4,3-6.9,6.1-10.4,9.1C659.8-183.1,656.4-180.1,652.9-177.1z"/>
<path class="st1" d="M675.1-145.4c-0.7,0.3-1.4,0.6-2.1,0.9c-0.6,0.3-1.2,0.5-1.8,0.8c-28.4,12.6-51,20.7-73.3,26.5
	c-13.8,3.5-30.1,7.1-46.7,7.1c-5.6,0-10.8-0.3-15.6-1l-0.1,0l-0.1,0c-0.2,0-0.4,0-0.6,0c0,0,0,0,0,0c0,0.2,0,0.5,0.1,0.9
	c1.3,7.2,2.4,13.2,4.2,19.1c4.6,15.2,12.2,30.1,23.1,45.6c18.5,26.3,38.8,46.3,62,61.4c11.3,7.3,22.1,12.3,32.9,15.1
	c1,0.3,1.6,0.3,2,0.3c0.1-0.3,0.2-1,0.3-2.1c0-0.7,0.1-1.4,0.1-2.1c0.1-0.7,0.1-1.5,0.2-2.2c0.2-3.2,0.4-6.4,0.8-9.8
	c1.7-12.5,5.5-25.7,11.7-41.6c11.3-28.7,26.4-54.6,38.3-73.9c0.2-0.4,0.5-0.9,0.8-1.3c0.3-0.5,0.5-0.9,0.8-1.3l-7.3-8.3L675.1-145.4
	z"/>
<path class="st1" d="M1153.3-163.6c4.2-4.3,9.5-10.5,12.4-14.5c-0.2-0.1-0.5-0.3-0.7-0.4l-2.5-1.4l-4-2.2l-0.5-0.3
	c-4.1-2.2-8.3-4.5-12.3-6.9c-1.1-0.6-2.2-1.3-3.3-1.9c-3.7-2.2-7.5-4.4-11.2-6.5c-2.5-1.5-5.1-3-7.7-4.6c4.7,6.1,9.3,12.1,14.2,18.4
	c4.5,5.8,9,11.7,13.6,17.6L1153.3-163.6z"/>
<path class="st1" d="M1194.7,166.3c-3.8-2.5-7.7-4.9-11.5-7.4c-16.3-10.4-33.3-21.4-49.7-32l-2.8-1.8c-1-0.7-1.6-0.8-2.2-0.8
	c-0.5,0-1.1,0.1-1.9,0.5c-14.4,5.4-30.5,9.5-50.7,12.8c-16.9,2.7-34.6,4.5-55.9,5.6c-8,0.4-16.3,0.6-24.7,0.6
	c-12.3,0-25.8-0.5-39.8-1.4c-12.6-0.8-25.3-2.1-37.6-3.4l-3.7-0.4L908,138l-6.2-0.6c-13-1.3-25.1-1.9-36.2-1.9
	c-19.7,0-38.6,1.7-56.3,5.2c-22.9,4.3-39.3,10.5-53,20.1c-20.3,14.1-36.2,29-48.7,45.5c0,0,0,0,0.1,0c5.9-0.7,12.6-1.6,19.8-2.6
	c3.3-0.4,6.6-0.8,9.9-1.3c3.9-0.5,7.8-1,11.7-1.5c14-1.7,28.3-2.6,42.5-2.6c11,0,22.3,0.5,33.6,1.5c22.7,2,45,4.2,71.5,6.8
	c25.6,2.5,51.2,5.3,72.9,7.6c25.1,2.7,48.6,4.6,81.1,5.1l4.2,0c17.7,0,39.1-1.7,57.4-4.6c23.6-3.7,43.4-9.3,60.8-17.2
	c11.9-5.4,23-12.4,32.9-20.9c0.9-0.8,1.5-1.3,1.8-1.7c-0.3-0.3-0.8-0.6-1.6-1.1C1202.4,171.3,1198.5,168.8,1194.7,166.3z"/>
<path class="st1" d="M1369.3-111.3c-3.5,0.4-7.2,0.7-10.6,0.8l0,0h0c-0.5,0-1.1,0-1.7,0c-0.7,0-1.4,0.1-2.1,0.1
	c-19.1,0-37.4-4.4-51.2-8.3c-21.1-5.8-43.3-14-70.2-25.9c-1.2-0.6-2-0.9-2.4-1.1c-0.3,0.3-0.8,0.8-1.6,1.7c-3,3.4-6,6.9-9.1,10.4
	c-7.9,9.1-16.2,18.4-25.2,28.9c-0.4,0.4-0.7,0.9-1.2,1.5c0.1,0.2,0.2,0.3,0.3,0.5l0,0l0,0l3.6,6c16.7,27.6,27.9,49.6,36.3,71.4
	c6.8,17.5,10.4,31.4,11.7,44.8c0.1,1.2,0.2,2.5,0.2,3.8c0,0.6,0,1.2,0.1,1.8c0,0.5,0.1,1.1,0.1,1.7c0,1,0.1,2.1,0.2,3.1l0,0l0,0
	c0,0.5,0.1,0.8,0.2,0.9c0.1,0,0.1,0,0.2,0c0.3,0,0.6,0,0.7,0l0,0l0,0c0.9-0.2,2-0.5,3.1-0.8c10.3-3.1,20.8-8.1,31.9-15.3
	c19.6-12.7,37.5-29.6,54.6-51.7c13.3-17.3,22.5-33.7,28-49.9c2.5-7.5,4.2-15.5,5.7-23c0.2-0.8,0.2-1.4,0.2-1.8c-0.1,0-0.2,0-0.3,0
	C1370.5-111.4,1370-111.4,1369.3-111.3z"/>
<path class="st1" d="M1258.3-193.2c13.3-28.6,26.3-56.9,36.2-78.5c-0.1,0.1-0.2,0.1-0.4,0.2c-9.2,5.8-18.4,11.6-27.5,17.4
	c-14.8,9.3-30.1,19-45.1,28.5c-0.1,0-0.1,0.1-0.2,0.1l4.6,4C1238.2-210.6,1248.6-201.6,1258.3-193.2z"/>
<path class="st1" d="M1199.2-215L1199.2-215c0.5,0.9,1.4,1.7,2.3,2.5l0.4,0.3l7.7,6.8c10.2,8.9,20.7,18.1,30.7,26.9l0.8,0.7l2.1,1.9
	l0.3,0.2c2.4,2.2,4.5,4,6.5,5.5c1,0.8,2,1.2,2.8,1.2c0.5,0,1.4-0.1,2.6-1.3c0.6-0.6,2.1-2.4-0.3-5.2c-0.6-0.6-1.1-1.1-1.7-1.7
	l-0.1,0l-0.1-0.1c0,0-0.1,0-0.1-0.1c-0.1-0.1-0.3-0.2-0.5-0.4c-3.3-2.9-6.7-5.8-10-8.8c-3.4-2.9-6.7-5.9-10.1-8.8
	c-8.5-7.4-17.2-15-25.8-22.6l0,0l0,0l-0.4-0.4c-1.5-1.3-2.5-2.2-3.5-2.2h-0.3h-0.1h-0.1h-0.3c-1.4,0-2.3,0.5-2.9,1.7
	C1198.3-217.4,1198.4-216.3,1199.2-215L1199.2-215z"/>
<path class="st1" d="M771.2,120.6c0,5,0,10.1,0.1,15.2c0.6-0.2,1.2-0.4,1.8-0.6l0,0l0,0c4-1.4,8.3-2.9,12.7-4.1
	c24.2-7,50.2-10.4,79.4-10.4c11,0,22.3,0.5,34.7,1.5c6.2,0.5,12.4,1.1,18.5,1.7c2.2,0.2,4.5,0.4,6.7,0.7c1.9,0.2,3.9,0.4,5.9,0.6
	c7,0.7,14.3,1.5,21.4,2c15.2,1.2,30.2,1.8,44.7,1.8c24.5,0,48.7-1.8,71.8-5.3c19.4-3,36.1-7,50.9-12.2l0.4-0.1
	c0.6-0.2,1.4-0.5,1.9-0.7c0-0.4,0-1,0-1.4c0-0.3,0-0.6,0-0.9c-0.3-9.1-0.7-17.5-1.2-25.6c-0.2-2.2-0.5-4.5-0.9-7
	c-0.5,0.2-1.1,0.3-1.6,0.5c-0.9,0.3-1.8,0.6-2.7,0.8c-3,0.9-5.8,1.8-8.6,2.6c-27,7.4-57.4,11.4-95.5,12.4c-3.9,0.1-8.2,0.2-12.7,0.2
	c-31.6,0-62.7-3-94.5-6.4c-13-1.4-25.9-2.1-38.5-2.1c-17.9,0-36,1.5-53.6,4.6c-15,2.7-28,6.4-39.8,11.3c-1.6,0.6-1.6,0.9-1.6,2.1
	c0,3.1,0.1,6.4,0.1,9.5C771.1,114.3,771.1,117.5,771.2,120.6z"/>
<path class="st1" d="M847.7-57c-11.4,9.4-21.7,20.2-30.8,32.1c12.4-9.6,26.1-17.9,41-24.6c30.6-13.9,64.7-21.5,104.3-23
	c4.6-0.2,9.3-0.3,13.9-0.3c25.4,0,51.3,2.7,76.9,7.9l0,0l0,0c0.4,0.1,0.8,0.1,1.2,0.2l22-42.3c-0.9-0.1-1.7-0.2-2.6-0.3
	c-4.4-0.5-8.7-0.9-12.9-1.3l-3-0.3c-12.9-1.2-25.8-1.8-38.4-1.8c-16.1,0.2-31.6,1.2-46.3,3.1c-26,3.3-48.8,9.1-69.8,17.8
	C882.5-81.3,863.8-70.3,847.7-57z"/>
<path class="st1" d="M1192.8,388.7c-0.1-1-0.2-2-0.3-3c-0.4-3.9-0.8-8.3-0.8-12.8c-0.1-7.8-3.5-13.8-9.8-21.6l-20.1,17.6l-8.6,7.6
	c5.3,6.6,12.8,11.4,20.5,12.9c2.1,0.4,4.3,0.8,6.4,1.3c1.6,0.3,3.2,0.6,4.7,0.9c2.4,0.5,4.8,1,7.1,1.4l0.1,0l0.1,0
	c0.5,0.1,0.8,0.1,1.2,0.1c0-0.3,0-0.7,0-1.3C1193,390.7,1192.9,389.7,1192.8,388.7z"/>
</svg>
